PathFileType  4	(X/Y/Z) C:\Users\antoi\Documents\MyRepositories\mobilecap\ResultsAnalysis
DataRate	CameraRate	NumFrames	NumMarkers	Units	OrigDataRate	OrigDataStartFrame	OrigNumFrames
100.0	100.0	4	51	mm	100.0	1	130
Frame#	Time	r_knee			r_shank_antsup			r_ankle			r_calc			r_5meta			r_toe			L_knee			L_shank_antsup			L_ankle			L_calc			L_5meta			L_toe			r_sh2			r_sh3			r_sh4			L_sh2			L_sh3			r_thigh1			r_thigh2			r_thigh3			r_thigh4			r_thigh5			L_thigh1			L_thigh2			L_thigh3			L_thigh4			r.ASIS			r.PSIS			L.ASIS			L.PSIS			C7			R_Shoulder			L_Shoulder			R_Sternum			L_Sternum			R_humerus			R_elbow_med			R_elbow_lat			R_forearm			R_wrist_radius			R_wrist_ulna			L_humerus			L_elbow_med			L_elbow_lat			L_forearm			L_wrist_radius			L_wrist_ulna			R_HJC			L_HJC			R_HJC_reg			L_HJC_reg			
		X1	Y1	Z1	X2	Y2	Z2	X3	Y3	Z3	X4	Y4	Z4	X5	Y5	Z5	X6	Y6	Z6	X7	Y7	Z7	X8	Y8	Z8	X9	Y9	Z9	X10	Y10	Z10	X11	Y11	Z11	X12	Y12	Z12	X13	Y13	Z13	X14	Y14	Z14	X15	Y15	Z15	X16	Y16	Z16	X17	Y17	Z17	X18	Y18	Z18	X19	Y19	Z19	X20	Y20	Z20	X21	Y21	Z21	X22	Y22	Z22	X23	Y23	Z23	X24	Y24	Z24	X25	Y25	Z25	X26	Y26	Z26	X27	Y27	Z27	X28	Y28	Z28	X29	Y29	Z29	X30	Y30	Z30	X31	Y31	Z31	X32	Y32	Z32	X33	Y33	Z33	X34	Y34	Z34	X35	Y35	Z35	X36	Y36	Z36	X37	Y37	Z37	X38	Y38	Z38	X39	Y39	Z39	X40	Y40	Z40	X41	Y41	Z41	X42	Y42	Z42	X43	Y43	Z43	X44	Y44	Z44	X45	Y45	Z45	X46	Y46	Z46	X47	Y47	Z47	X48	Y48	Z48	X49	Y49	Z49	X50	Y50	Z50	X51	Y51	Z51	

1	0.00000000	-180.30579	546.59028	-36.36305	-105.17538	480.84361	-41.20493	-7.88119	148.30124	-74.99447	-46.33620	67.23017	-130.88067	132.44806	134.75873	-30.30108	165.49416	198.79828	-85.25533	-505.48630	528.46835	-322.00463	-526.24490	437.46510	-334.38045	-638.57978	128.64993	-243.24268	-723.14015	84.91941	-181.91447	-541.18976	46.95387	-283.11687	-475.32609	66.23520	-225.42506	-74.74056	374.28508	-20.12496	-175.10001	466.43120	-8.75545	-155.53798	351.94017	-9.42017	-612.51804	467.20811	-320.88886	-636.29438	348.53558	-303.70788	-246.76555	861.76428	-11.16423	-197.06684	765.49840	-16.82554	-233.75569	716.98210	13.01638	-345.22602	809.01558	-4.99685	-286.18432	707.56061	-7.56747	-367.99994	800.33368	-367.08809	-384.96753	663.61054	-340.50074	-476.95015	812.65933	-372.28532	-497.00770	678.45682	-352.42896	-292.43518	1058.74231	-62.84970	-478.70971	1044.22390	-107.50906	-320.48400	1057.08896	-316.25796	-494.53829	1055.67286	-215.96691	-422.14651	1608.96599	-166.49638	-365.40127	1528.35414	0.60674	-392.62693	1538.45605	-337.96697	-314.95007	1499.89104	-142.08494	-321.44722	1499.43579	-199.34451	-398.12604	1366.83406	59.64924	-514.62971	1193.06090	-10.67767	-515.11373	1204.60903	72.30235	-513.57559	1033.77611	101.88276	-499.77129	935.91220	99.98516	-541.62464	953.42126	113.38579	-386.29081	1421.27644	-425.80086	-360.01257	1173.68825	-397.12250	-346.22286	1202.33917	-474.54941	-274.16452	1176.12198	-492.98668	-127.95365	1071.55619	-498.06115	-155.06109	1044.69704	-514.49642	-356.79489	931.98799	-77.01724	-389.18937	939.82440	-281.27665	-336.92936	955.64416	-102.99465	-361.09866	973.12603	-268.60379	
2	0.01000000	-163.97762	544.82606	-37.63584	-89.09461	478.96753	-44.20310	5.79510	144.98132	-77.98827	-33.80551	64.10688	-132.60132	147.54546	132.27034	-37.07197	178.65053	196.84995	-92.80500	-493.86201	528.22088	-321.81215	-516.38597	437.22319	-334.49875	-636.13331	131.38941	-243.56608	-721.60471	89.19608	-182.25267	-540.58013	47.05445	-283.32989	-474.21298	65.70069	-225.72327	-58.73111	372.72362	-22.82188	-158.01798	465.25243	-9.44221	-138.86345	350.61569	-9.22798	-601.83046	469.04322	-320.69776	-628.50053	350.99058	-303.61892	-230.68825	859.73952	-11.11702	-181.10865	763.35828	-17.22878	-217.98914	715.05182	12.80065	-329.21691	807.30213	-4.99247	-270.51305	705.86403	-7.57600	-354.76077	798.88588	-367.30502	-372.52484	662.20681	-340.88953	-463.60373	812.15467	-371.18466	-484.77971	678.11606	-352.14419	-276.47133	1057.29727	-62.66387	-463.26382	1042.93259	-106.85200	-305.13055	1055.27646	-316.08472	-478.88864	1053.92900	-214.78385	-406.42844	1607.44267	-166.33580	-350.15857	1526.92335	0.97969	-376.86904	1536.66566	-337.54914	-299.45057	1498.24860	-141.61046	-305.68337	1497.75608	-198.87698	-383.94865	1365.50686	59.97420	-502.60460	1193.18333	-11.60121	-503.04993	1204.53094	71.49459	-503.89055	1033.70765	100.91866	-491.08324	935.66916	99.00907	-532.89799	953.59231	112.18007	-369.97561	1420.15866	-425.70960	-341.94588	1172.38791	-398.85977	-328.26886	1201.90574	-476.02932	-255.48398	1177.41419	-493.93686	-106.62708	1077.02816	-497.98347	-132.77020	1049.56046	-515.02026	-340.96006	930.59583	-76.33857	-373.91679	938.04107	-280.52067	-321.63752	954.40417	-102.40329	-345.63109	971.28588	-268.15528	
3	0.02000000	-147.77899	543.07931	-38.95594	-73.44172	476.88236	-47.18528	18.58164	141.55962	-81.06641	-22.43953	61.39223	-134.33070	161.63973	129.12693	-43.71254	191.13309	193.94001	-100.27930	-481.83412	527.98831	-321.65178	-506.14671	436.99470	-334.63072	-633.51858	134.35597	-243.95690	-719.90310	93.80893	-182.65255	-539.91407	47.19617	-283.53328	-473.09551	65.13480	-226.03444	-43.29701	370.83667	-25.58625	-141.34230	463.93689	-10.25818	-122.82978	349.14237	-9.25894	-590.75075	470.93029	-320.59727	-620.36597	353.53998	-303.59680	-214.42974	857.92379	-11.26674	-164.98167	761.43304	-17.88821	-201.97031	713.36232	12.42554	-312.96326	805.71475	-4.90926	-254.62530	704.35135	-7.60779	-341.30133	797.53634	-367.42778	-359.80481	660.86047	-341.26487	-450.05947	811.65625	-370.06253	-472.24600	677.77370	-351.83834	-260.39231	1055.95822	-62.38238	-447.63572	1041.69023	-106.10888	-289.67345	1053.54388	-315.83623	-463.13754	1052.29907	-213.57670	-390.67201	1606.03457	-166.15500	-334.86414	1525.59482	1.36509	-361.10190	1534.97762	-337.11534	-283.89391	1496.71379	-141.12579	-289.90040	1496.17518	-198.40353	-369.72036	1364.29085	60.31138	-490.28317	1193.31057	-12.46114	-490.76825	1204.47847	70.72534	-493.85842	1033.67969	100.00935	-482.00437	935.47169	98.07553	-523.78877	953.80777	111.03914	-353.69870	1419.11004	-425.56645	-324.11201	1171.14838	-400.50706	-310.53633	1201.51193	-477.43269	-237.05997	1178.69676	-494.82059	-85.68940	1082.40847	-497.85553	-110.87634	1054.35607	-515.46156	-324.99082	929.29165	-75.59267	-358.51096	936.34771	-279.69632	-306.11688	953.17991	-101.76438	-330.04467	969.55043	-267.64963	
4	0.03000000	-131.90198	541.34422	-40.35533	-58.57237	474.45128	-50.12662	29.87048	138.03172	-84.27394	-13.02991	59.43213	-136.07033	174.00039	124.91708	-50.07972	202.49114	189.41313	-107.58424	-469.06121	527.78138	-321.54888	-495.21726	436.80693	-334.79298	-630.58545	137.75780	-244.46581	-717.87463	99.05708	-183.14909	-539.13990	47.41811	-283.72437	-471.95119	64.50711	-226.36538	-28.87493	368.40499	-28.47422	-125.41872	462.37057	-11.31573	-107.92839	347.40142	-9.70239	-578.94897	472.92840	-320.64650	-611.60678	356.28458	-303.67852	-197.86078	856.45613	-11.75684	-148.59536	759.85509	-18.98896	-185.57858	712.06480	11.74356	-296.31391	804.36496	-4.71739	-238.42255	703.15045	-7.71737	-327.42147	796.36683	-367.38707	-346.54867	659.63060	-341.60910	-436.13258	811.17135	-368.90270	-459.12612	677.42592	-351.46082	-244.10223	1054.81687	-61.94054	-431.68837	1040.55988	-105.21883	-274.01709	1051.96931	-315.45529	-447.19615	1050.88339	-212.32253	-374.84744	1604.84464	-165.93641	-319.47349	1524.46268	1.77441	-345.32486	1533.48327	-336.65306	-268.23737	1495.38446	-140.62337	-274.07879	1494.78750	-197.92006	-355.38320	1363.28300	60.67558	-477.42940	1193.45288	-13.20756	-478.08266	1204.47911	70.02823	-483.19179	1033.72727	99.20090	-472.20540	935.35950	97.22180	-513.97410	954.10108	110.01597	-337.51228	1418.19161	-425.33729	-306.70682	1170.02509	-401.98584	-293.21439	1201.19052	-478.69183	-219.11120	1179.96139	-495.58231	-65.45822	1087.61810	-497.63876	-89.71092	1059.02051	-515.75565	-308.78132	928.15819	-74.72964	-342.86382	934.82935	-278.75332	-290.20432	952.01477	-101.03889	-314.24126	968.01314	-267.03883	
